<svg xmlns="http://www.w3.org/2000/svg" width="2005.2" height="1336.679" viewBox="0 0 2005.2 1336.679">
  <path id="Path_4" data-name="Path 4" d="M-188.39,729.233s14.572-218.4,42.49-179.435,37.133,391.914,69.183,335.3S-50.263,426.054-17.7,323.342s36.1,192.24,71.243,150.909,42.833-370.659,69.329-316.233,7.718,687.772,32.8,744.612,70.421-595.334,103.418-547.048-36.5,614.58,0,655.686S406.381,547.5,444.161,580.443s24.54,876.508,76.278,758.424S579.4,162.076,624.3,35.481s47.509,456.387,74.4,498.884S808.426,43.35,832.966,137s8.331,937.181,51.592,937.181,37.03-626.7,98.786-674.984,11.529,435.039,61.344,469.521,67.2-552.568,109.614-513.14,4.773,576.411,49.267,607.688,19.1-434.019,69.4-473.446,19.347,207.294,65.312,202.128,23.123-485.83,57.4-506.6,48.257,470.414,76.81,475.579,41.969-192.14,77.66-186.683,60.019,171.654,101.895,186.683,25.367-122.794,65.609-126.568S1813.01,645.84,1813.01,645.84" transform="translate(190.386 -15.512)" fill="none" stroke="#0085ea" stroke-width="4"/>
</svg>
